<?xml version="1.0" encoding="UTF-8" standalone="no"?>
<svg width="146px" height="116px" viewBox="0 0 146 116" version="1.1" xmlns="http://www.w3.org/2000/svg" xmlns:xlink="http://www.w3.org/1999/xlink" xmlns:sketch="http://www.bohemiancoding.com/sketch/ns">
    <!-- Generator: Sketch 3.5.2 (25235) - http://www.bohemiancoding.com/sketch -->
    <title>comments16</title>
    <desc>Created with Sketch.</desc>
    <defs></defs>
    <g id="Web" stroke="none" stroke-width="1" fill="none" fill-rule="evenodd" sketch:type="MSPage">
        <g id="Comment-History---Empty-State" sketch:type="MSArtboardGroup" transform="translate(-1101.000000, -289.000000)" fill="#EEEEEE">
            <g id="comments16" sketch:type="MSLayerGroup" transform="translate(1101.000000, 289.000000)">
                <g id="Capa_1" sketch:type="MSShapeGroup">
                    <g id="Group">
                        <path d="M86.158,78.486 C94.984,74.765 101.95,69.7 107.054,63.291 C112.16,56.882 114.713,49.903 114.713,42.353 C114.713,34.803 112.16,27.824 107.054,21.414 C101.95,15.005 94.984,9.94 86.158,6.219 C77.332,2.498 67.732,0.638 57.357,0.638 C46.983,0.638 37.383,2.499 28.556,6.22 C19.73,9.941 12.764,15.006 7.659,21.415 C2.553,27.824 0,34.803 0,42.353 C0,48.816 1.93,54.902 5.786,60.604 C9.642,66.307 14.938,71.115 21.673,75.025 C21.13,76.33 20.573,77.523 20.003,78.611 C19.432,79.697 18.754,80.742 17.966,81.748 C17.178,82.753 16.568,83.54 16.133,84.109 C15.698,84.679 14.992,85.481 14.014,86.512 C13.036,87.544 12.411,88.223 12.14,88.549 C12.14,88.493 12.031,88.616 11.814,88.915 C11.596,89.214 11.474,89.349 11.447,89.323 C11.42,89.294 11.311,89.43 11.121,89.729 C10.931,90.028 10.836,90.177 10.836,90.177 L10.632,90.584 C10.551,90.746 10.496,90.908 10.469,91.072 C10.442,91.234 10.428,91.412 10.428,91.601 C10.428,91.79 10.455,91.967 10.51,92.13 C10.619,92.836 10.931,93.405 11.447,93.841 C11.963,94.275 12.519,94.491 13.117,94.491 L13.362,94.491 C16.077,94.112 18.413,93.677 20.368,93.188 C28.733,91.015 36.283,87.539 43.018,82.759 C47.906,83.628 52.686,84.063 57.357,84.063 C67.731,84.066 77.332,82.206 86.158,78.486 L86.158,78.486 Z M40.574,71.684 L36.989,74.209 C35.468,75.24 33.785,76.301 31.938,77.387 L34.79,70.542 L26.887,65.98 C21.672,62.939 17.626,59.354 14.747,55.226 C11.868,51.098 10.429,46.807 10.429,42.353 C10.429,36.812 12.562,31.625 16.825,26.791 C21.088,21.957 26.832,18.128 34.056,15.303 C41.28,12.479 49.047,11.066 57.357,11.066 C65.667,11.066 73.435,12.479 80.658,15.303 C87.882,18.128 93.626,21.957 97.89,26.791 C102.154,31.625 104.285,36.812 104.285,42.353 C104.285,47.893 102.154,53.08 97.89,57.914 C93.626,62.749 87.882,66.578 80.658,69.402 C73.435,72.226 65.668,73.638 57.357,73.638 C53.284,73.638 49.129,73.257 44.892,72.497 L40.574,71.684 L40.574,71.684 Z" id="Shape"></path>
                        <path d="M140.213,81.497 C144.07,75.82 145.998,69.725 145.998,63.207 C145.998,56.526 143.961,50.279 139.889,44.468 C135.815,38.657 130.274,33.822 123.268,29.966 C124.516,34.039 125.141,38.167 125.141,42.35 C125.141,49.628 123.323,56.526 119.682,63.044 C116.043,69.561 110.828,75.318 104.039,80.316 C97.738,84.878 90.568,88.381 82.529,90.826 C74.492,93.269 66.1,94.492 57.355,94.492 C55.726,94.492 53.336,94.384 50.186,94.167 C61.103,101.336 73.922,104.921 88.641,104.921 C93.313,104.921 98.092,104.486 102.981,103.617 C109.715,108.398 117.266,111.873 125.63,114.046 C127.585,114.536 129.921,114.97 132.637,115.35 C133.288,115.405 133.887,115.215 134.43,114.78 C134.973,114.345 135.326,113.749 135.489,112.989 C135.463,112.663 135.489,112.485 135.571,112.459 C135.651,112.433 135.637,112.256 135.53,111.93 C135.422,111.604 135.367,111.441 135.367,111.441 L135.164,111.035 C135.108,110.927 135.015,110.777 134.879,110.587 C134.743,110.399 134.635,110.262 134.553,110.18 C134.472,110.099 134.351,109.963 134.187,109.774 C134.025,109.585 133.916,109.462 133.861,109.407 C133.59,109.082 132.966,108.403 131.988,107.371 C131.01,106.339 130.304,105.538 129.87,104.968 C129.436,104.398 128.824,103.611 128.037,102.605 C127.25,101.601 126.57,100.555 126,99.468 C125.43,98.382 124.873,97.187 124.33,95.884 C131.062,91.97 136.359,87.177 140.213,81.497 L140.213,81.497 Z" id="Shape"></path>
                    </g>
                </g>
            </g>
        </g>
    </g>
</svg>