<?xml version="1.0" encoding="UTF-8" standalone="no"?>
<svg width="16px" height="16px" viewBox="0 0 16 16" version="1.1" xmlns="http://www.w3.org/2000/svg" xmlns:xlink="http://www.w3.org/1999/xlink" xmlns:sketch="http://www.bohemiancoding.com/sketch/ns">
    <!-- Generator: Sketch 3.2.2 (9983) - http://www.bohemiancoding.com/sketch -->
    <title>icn-layer-locked</title>
    <desc>Created with Sketch.</desc>
    <defs></defs>
    <g id="Page-1" stroke="none" stroke-width="1" fill="none" fill-rule="evenodd" sketch:type="MSPage">
        <g id="icn-layer-locked" sketch:type="MSArtboardGroup" fill="#999999">
            <path d="M13.3230769,7.91425232 C13.527,7.98062373 13.692,8.09737344 13.8138462,8.26290213 C13.9390769,8.42843083 14,8.62034816 14,8.83465584 L14,14.0284185 C14,14.2891062 13.8976154,14.5154087 13.6953846,14.7089254 C13.4948462,14.9016424 13.2545385,15 12.9812308,15 L4.02807692,15 C3.75223077,15 3.51192308,14.9016424 3.308,14.7089254 C3.10238462,14.5154087 3,14.2891062 3,14.0284185 L3,8.83465584 C3,8.6195485 3.06261538,8.42843083 3.18784615,8.26290213 C3.31476923,8.09737344 3.47976923,7.98062373 3.68538462,7.91425232 L3.68538462,6.55403826 C3.68538462,5.92950729 3.81061538,5.34096082 4.06107692,4.78759919 C4.31407692,4.2334379 4.65846154,3.74964631 5.09338462,3.33542474 C5.53,2.92040352 6.04192308,2.59574337 6.63,2.35664637 C7.21723077,2.11834902 7.84338462,2 8.50423077,2 C9.16507692,2 9.78784615,2.11834902 10.3733846,2.35664637 C10.9589231,2.59494372 11.4708462,2.92040352 11.91,3.33462508 C12.3491538,3.74884665 12.6943846,4.23503721 12.9465385,4.79159747 C13.1978462,5.34735806 13.3230769,5.93430522 13.3230769,6.55403826 L13.3230769,7.91425232 L13.3230769,7.91425232 Z M11.2508462,6.55403826 C11.2508462,6.19019499 11.1789231,5.84874208 11.0359231,5.5336778 C10.8929231,5.21861352 10.6940769,4.94513133 10.4436154,4.71323122 C10.1931538,4.48133112 9.89953846,4.29661069 9.56276923,4.16146891 C9.226,4.02552747 8.87315385,3.95755674 8.50423077,3.95755674 C8.11753846,3.95755674 7.76130769,4.02552747 7.433,4.16066925 C7.10553846,4.29581104 6.81361538,4.48053146 6.55892308,4.71243157 C6.30507692,4.94433167 6.10623077,5.22021283 5.96238462,5.53847573 C5.81938462,5.85513932 5.74746154,6.19499293 5.74746154,6.55403826 L5.74746154,7.84868057 L11.25,7.84868057 L11.25,6.55403826 L11.2508462,6.55403826 Z M9.094,11.2736052 C9.26238462,11.1752476 9.402,11.0401058 9.50946154,10.8729778 C9.61692308,10.7034508 9.67276923,10.5227287 9.67276923,10.3300117 C9.67276923,10.0253429 9.55853846,9.76305591 9.33092308,9.54155133 C9.10076923,9.31924709 8.82492308,9.20889463 8.50423077,9.20889463 C8.18184615,9.20889463 7.90769231,9.31924709 7.67838462,9.54075168 C7.44907692,9.76225626 7.33653846,10.0245433 7.33653846,10.329212 C7.33653846,10.521929 7.38815385,10.7034508 7.49392308,10.8721781 C7.59969231,11.0401058 7.73592308,11.1680507 7.90769231,11.2576121 L7.33653846,13.6389863 L9.67107692,13.6389863 L9.094,11.2736052 L9.094,11.2736052 Z" id="lock" sketch:type="MSShapeGroup"></path>
        </g>
    </g>
</svg>