<?xml version="1.0" encoding="UTF-8" standalone="no"?>
<svg width="16px" height="16px" viewBox="0 0 16 16" version="1.1" xmlns="http://www.w3.org/2000/svg" xmlns:xlink="http://www.w3.org/1999/xlink" xmlns:sketch="http://www.bohemiancoding.com/sketch/ns">
    <!-- Generator: Sketch 3.2.2 (9983) - http://www.bohemiancoding.com/sketch -->
    <title>icn-layer-visibile</title>
    <desc>Created with Sketch.</desc>
    <defs></defs>
    <g id="Page-1" stroke="none" stroke-width="1" fill="none" fill-rule="evenodd" sketch:type="MSPage">
        <g id="icn-layer-visibile" sketch:type="MSArtboardGroup" fill="#CCCCCC">
            <path d="M14.8285686,7.3325 C14.9445595,7.543125 15.0022636,7.769375 14.9999321,8.00875 C14.9970177,8.248125 14.9404794,8.4675 14.8285686,8.668125 C14.4234746,9.3575 13.9665052,9.971875 13.4576605,10.511875 C12.9493987,11.051875 12.404999,11.505 11.8256272,11.8725 C11.2456724,12.239375 10.6342428,12.51875 9.9913382,12.71125 C9.34843362,12.90375 8.68454576,13 8.00142321,13 C7.32820944,13 6.6695674,12.90375 6.02724569,12.71125 C5.38434111,12.51875 4.76941425,12.23625 4.1824651,11.86375 C3.59435021,11.491875 3.04703616,11.03625 2.53819146,10.496875 C2.02934677,9.955625 1.57995472,9.3475 1.19059818,8.668125 C1.06294986,8.466875 1,8.2475 1,8.008125 C1,7.76875 1.06294986,7.543125 1.19001532,7.331875 C1.58520054,6.6525 2.03517546,6.044375 2.54168868,5.508125 C3.04761903,4.97 3.59435021,4.515 4.1824651,4.139375 C4.76941425,3.765625 5.38317537,3.481875 6.02374847,3.28875 C6.66432158,3.095625 7.32296362,3 8.00142321,3 C8.68454576,3 9.34843362,3.09625 9.9913382,3.28875 C10.6342428,3.48125 11.2450896,3.761875 11.8256272,4.130625 C12.404999,4.50125 12.9493987,4.954375 13.4576605,5.49125 C13.9665052,6.03 14.4234746,6.643125 14.8285686,7.3325 L14.8285686,7.3325 Z M8.00142321,11.754375 C8.60410983,11.754375 9.18289881,11.664375 9.73662442,11.485 C10.2909329,11.305625 10.8160979,11.05625 11.3127024,10.735625 C11.8087239,10.415 12.2691905,10.02125 12.6946849,9.554375 C13.1201793,9.0875 13.4996271,8.569375 13.8341939,7.999375 C13.4290999,7.298125 12.9540617,6.68375 12.4102448,6.155625 C11.8658451,5.625625 11.2672386,5.200625 10.6138424,4.88125 C10.8720534,5.2 11.0731432,5.5625 11.2171118,5.964375 C11.3610805,6.364375 11.4339391,6.8 11.4339391,7.266875 C11.4339391,7.788125 11.3441773,8.27375 11.1640708,8.72375 C10.9845471,9.175625 10.7333305,9.5725 10.4121697,9.918125 C10.0910088,10.261875 9.71738974,10.5325 9.29247819,10.726875 C8.86698377,10.923125 8.41409451,11.020625 7.93322753,11.020625 C7.44711473,11.020625 6.9936426,10.9225 6.57397687,10.726875 C6.15372828,10.5325 5.78302355,10.261875 5.4618627,9.918125 C5.1395361,9.5725 4.88948527,9.175625 4.7099616,8.72375 C4.53043793,8.27375 4.44067609,7.78875 4.44067609,7.266875 C4.44067609,6.843125 4.50479169,6.439375 4.63418862,6.0575 C4.76358555,5.675625 4.9361148,5.326875 5.1546907,5.01125 C4.56132999,5.3325 4.01110159,5.745625 3.5022569,6.254375 C2.99282933,6.760625 2.54926598,7.34375 2.16865248,8 C2.50321932,8.565 2.88150134,9.08125 3.30408142,9.55125 C3.72724436,10.02125 4.18771092,10.415 4.68664684,10.735625 C5.18499989,11.05625 5.71133066,11.305625 6.26622201,11.485 C6.82111336,11.664375 7.3987366,11.754375 8.00142321,11.754375 L8.00142321,11.754375 Z M7.93322753,4.831875 C7.62430693,4.831875 7.32937518,4.895 7.04843229,5.023125 C6.7674894,5.15125 6.52676448,5.32375 6.32684039,5.54125 C6.1269163,5.7575 5.96662731,6.01625 5.84480767,6.31875 C5.72357091,6.619375 5.66236965,6.935 5.66236965,7.2675 C5.66236965,7.391875 5.70433623,7.5 5.7876865,7.593125 C5.87103678,7.68625 5.97653608,7.730625 6.10301867,7.730625 C6.22950125,7.730625 6.33325195,7.684375 6.41427075,7.589375 C6.49587242,7.493125 6.53609038,7.386875 6.53609038,7.2675 C6.53609038,6.84375 6.67131601,6.48875 6.94176725,6.20125 C7.21280137,5.9125 7.54270526,5.769375 7.93322753,5.769375 C8.05971012,5.769375 8.16462655,5.72125 8.2485597,5.62625 C8.33190997,5.531875 8.37387655,5.421875 8.37387655,5.2975 C8.37387655,5.16125 8.33190997,5.05 8.2485597,4.961875 C8.16462655,4.875625 8.05971012,4.831875 7.93322753,4.831875 L7.93322753,4.831875 Z" id="eye" sketch:type="MSShapeGroup"></path>
        </g>
    </g>
</svg>