<?xml version="1.0" encoding="UTF-8" standalone="no"?>
<svg width="16px" height="16px" viewBox="0 0 16 16" version="1.1" xmlns="http://www.w3.org/2000/svg" xmlns:xlink="http://www.w3.org/1999/xlink" xmlns:sketch="http://www.bohemiancoding.com/sketch/ns">
    <!-- Generator: Sketch 3.2.2 (9983) - http://www.bohemiancoding.com/sketch -->
    <title>icn-layer-not-visible</title>
    <desc>Created with Sketch.</desc>
    <defs></defs>
    <g id="Page-1" stroke="none" stroke-width="1" fill="none" fill-rule="evenodd" sketch:type="MSPage">
        <g id="icn-layer-not-visible" sketch:type="MSArtboardGroup" fill="#999999">
            <path d="M5.91337975,13.8434355 C5.88304664,13.9166189 5.82763039,13.964608 5.74596434,13.9856033 C5.72554782,13.9952011 5.69813136,14 5.6625483,14 C5.63221519,14 5.58671553,13.9904022 5.52604932,13.9700068 L4.50055703,13.3755417 C4.42997423,13.334151 4.38272458,13.2735648 4.36055808,13.1925832 C4.33780825,13.1116015 4.34655819,13.0348189 4.38680788,12.9616355 L4.88788745,12.064839 C4.15464296,11.7109193 3.47273142,11.2460247 2.84506947,10.6707552 C2.21682419,10.0954857 1.66557833,9.42003894 1.19016524,8.64261529 C1.06299953,8.4512587 1,8.23950673 1,8.01155844 C1,7.78181056 1.06299953,7.56525968 1.19016524,7.36310554 C1.58507894,6.71165332 2.03540889,6.12678599 2.54173841,5.60910343 C3.04748461,5.09142086 3.59464717,4.6535202 4.18205942,4.29660116 C4.76888835,3.94148172 5.3825504,3.67034322 6.02304559,3.48558513 C6.66354078,3.30082705 7.32270249,3.208448 8.00111406,3.208448 C8.26886205,3.208448 8.53544338,3.22584406 8.79910806,3.26243575 C9.06160609,3.29902745 9.32293746,3.34341738 9.58076885,3.39440582 L10.2568471,2.16108559 C10.2970968,2.08790219 10.3583463,2.04171267 10.4388457,2.02071743 C10.5000953,1.98892464 10.5730114,1.99372355 10.6599274,2.03511417 L11.6702532,2.62897945 C11.740836,2.67037006 11.7904189,2.73095632 11.8184187,2.81193795 C11.8464185,2.89291958 11.8370852,2.96970216 11.7910022,3.04288556 L5.91337975,13.8434355 L5.91337975,13.8434355 Z M5.88304664,10.213059 C5.44788324,9.88493348 5.0984692,9.46922778 4.83480452,8.96714168 C4.57172316,8.46565543 4.43989082,7.90958158 4.43989082,7.2989201 C4.43989082,6.89281222 4.504057,6.50709972 4.63355603,6.13938314 C4.76305506,5.77286628 4.93572043,5.43394316 5.15388545,5.12141406 C4.56122324,5.43814221 4.01056071,5.83825145 3.50189787,6.31934231 C2.99323502,6.80043318 2.54932169,7.36310554 2.16899122,8.00316035 C2.58432143,8.68460577 3.06906779,9.28207024 3.62381362,9.79555375 C4.17855945,10.3084374 4.78697154,10.7181445 5.45021656,11.0252748 L5.88304664,10.213059 L5.88304664,10.213059 Z M5.6625483,7.2989201 C5.6625483,7.42009261 5.70454798,7.52326921 5.78796402,7.61264893 C5.87138006,7.70022907 5.9769626,7.744619 6.10296165,7.744619 C6.22896071,7.744619 6.33279326,7.69842948 6.41445931,7.60785002 C6.49554204,7.51727057 6.53637506,7.41349411 6.53637506,7.2989201 C6.53637506,6.89281222 6.67170738,6.55148965 6.94237201,6.27615211 C7.21361998,6.00021471 7.54320083,5.862246 7.93403123,5.862246 C8.06003028,5.862246 8.16561282,5.81785607 8.24961219,5.72667676 C8.33302823,5.63429771 8.37502791,5.52932152 8.37502791,5.40934874 C8.37502791,5.2785784 8.33302823,5.17180263 8.24961219,5.0890214 C8.16561282,5.00624018 8.06061361,4.96484957 7.93403123,4.96484957 C7.62486689,4.96484957 7.32970244,5.02543583 7.04970454,5.14780807 C6.76853999,5.27018031 6.52762513,5.43634262 6.3275433,5.64329567 C6.1280448,5.85204832 5.96762934,6.10039198 5.84571359,6.38892653 C5.72379784,6.67926067 5.6625483,6.98219195 5.6625483,7.2989201 L5.6625483,7.2989201 Z M14.8289794,7.36310554 C14.9450619,7.56525968 15.0028114,7.78181056 14.9998948,8.01155844 C14.9969782,8.23950673 14.9403952,8.4512587 14.8289794,8.64261529 C14.0187355,9.96651497 13.0259096,10.9862836 11.8481685,11.7043208 C10.6710107,12.4229577 9.40460351,12.787675 8.04719704,12.7972728 L8.71569202,11.5561544 C9.77385074,11.425384 10.7404268,11.0480696 11.6165869,10.4236113 C12.492747,9.79915294 13.2318248,8.99293582 13.8344036,8.00376021 C13.281991,7.1177612 12.616996,6.38172816 11.8365019,5.79266179 L12.4134142,4.72370427 C12.8794941,5.06622658 13.3146575,5.45673799 13.7200711,5.89463865 C14.1254847,6.33193946 14.4947319,6.82142842 14.8289794,7.36310554 L14.8289794,7.36310554 Z M11.4345883,7.2989201 C11.4345883,7.6846326 11.3797553,8.05114946 11.2712562,8.39667108 C11.1621736,8.7439923 11.0093415,9.05952072 10.8121763,9.34625568 C10.6144278,9.63299063 10.3793462,9.8879328 10.1057649,10.1110822 C9.83218363,10.3354313 9.53351921,10.5123911 9.20977164,10.6431615 L11.373922,6.65886529 C11.3943386,6.76384148 11.4095051,6.86581835 11.4194217,6.96779522 C11.428755,7.06977208 11.4345883,7.17954718 11.4345883,7.2989201 L11.4345883,7.2989201 Z" id="eye-closed" sketch:type="MSShapeGroup"></path>
        </g>
    </g>
</svg>