<?xml version="1.0" encoding="UTF-8" standalone="no"?>
<svg width="16px" height="16px" viewBox="0 0 16 16" version="1.1" xmlns="http://www.w3.org/2000/svg" xmlns:xlink="http://www.w3.org/1999/xlink" xmlns:sketch="http://www.bohemiancoding.com/sketch/ns">
    <!-- Generator: Sketch 3.2.2 (9983) - http://www.bohemiancoding.com/sketch -->
    <title>icn-layer-trash</title>
    <desc>Created with Sketch.</desc>
    <defs></defs>
    <g id="Page-1" stroke="none" stroke-width="1" fill="none" fill-rule="evenodd" sketch:type="MSPage">
        <g id="icn-layer-trash" sketch:type="MSArtboardGroup" fill="#666666">
            <path d="M11.8181818,13.9230769 L12.9090909,13.9230769 L12.9090909,5.30769231 L14,5.30769231 L14,3.15384615 L2,3.15384615 L2,5.30769231 L3.09090909,5.30769231 L3.09090909,5.30769231 L3.09090909,13.9230769 L4.18181818,13.9230769 L4.18181818,15 L11.8181818,15 L11.8181818,13.9230769 L11.8181818,13.9230769 Z M5.27272727,1 L5.27272727,2.07692308 L10.7272727,2.07692308 L10.7272727,1 L5.27272727,1 Z M4.18181818,2.07692308 L4.18181818,3.15384615 L6.36363636,3.15384615 L6.36363636,2.07692308 L4.18181818,2.07692308 Z M9.63636364,2.07692308 L9.63636364,3.15384615 L11.8181818,3.15384615 L11.8181818,2.07692308 L9.63636364,2.07692308 Z M5.27272727,6.38461538 L5.27272727,11.7692308 L6.36363636,11.7692308 L6.36363636,6.38461538 L5.27272727,6.38461538 Z M7.45454545,6.38461538 L7.45454545,11.7692308 L8.54545455,11.7692308 L8.54545455,6.38461538 L7.45454545,6.38461538 Z M9.63636364,6.38461538 L9.63636364,11.7692308 L10.7272727,11.7692308 L10.7272727,6.38461538 L9.63636364,6.38461538 Z" id="trash" sketch:type="MSShapeGroup"></path>
        </g>
    </g>
</svg>