<?xml version="1.0" encoding="utf-8"?>
<!-- Generator: Adobe Illustrator 21.0.0, SVG Export Plug-In . SVG Version: 6.00 Build 0)  -->
<svg version="1.1" id="Layer_1" xmlns="http://www.w3.org/2000/svg" xmlns:xlink="http://www.w3.org/1999/xlink" x="0px" y="0px"
	 viewBox="0 0 245.5 90.7" style="enable-background:new 0 0 245.5 90.7;" xml:space="preserve">
<style type="text/css">
	.st0{fill:#FFFFFF;}
</style>
<g>
	<path class="st0" d="M164.6,72.5h-9.5V35.3h9.5V72.5z"/>
	<path class="st0" d="M204.8,35.5v8.4h-24.9v28.6h-9.5V35.9c0-9.9,5.9-17.2,16.6-16v8.9c-4.5-0.4-7,1.5-7.1,6.6H204.8z"/>
	<path class="st0" d="M209.1,35.5v8.4h-6.7v28.6h-9.5V35.9c0-9.9,5.9-17.2,16.6-16v8.9c-4.5-0.4-7,1.5-7.1,6.6H209.1z"/>
	<path class="st0" d="M245.5,74c0,10-6.6,16.7-16.5,16.7c-8.2,0-14.9-5.3-16.2-13h9.9c0.6,2.7,3,4.1,6.3,4.1c5.2,0,7-3.7,7-7.1v-4.3
		c-2.2,1.9-5.1,3-8.5,3c-9.1,0-15.1-6.6-15.1-16.3V35.3h9.5V57c0,2.1,0.7,7.3,6.9,7.3c4.3,0,7.2-3.1,7.2-7.3V35.3h9.5V74z"/>
	<rect x="140.1" y="19.7" class="st0" width="9.6" height="53.1"/>
	<circle class="st0" cx="159.9" cy="26.5" r="5.8"/>
	<path class="st0" d="M135.4,70.7c0,12.3-7.4,20.1-19.3,20.1c-8.9,0-16.6-5.1-18-13h10.5c1.2,3,5,4.1,7.6,4.1c6.7,0,9.7-4.4,9.7-11
		V69c-2.9,2.7-6.6,4.3-11,4.3c-9.7,0-17.7-8.4-17.7-19.3c0-11,8-19.4,17.7-19.4c4.5,0,8.4,1.7,11.4,4.8v-4h9.1V70.7z M116.3,43.4
		c-5.3,0-9.5,4.6-9.5,10.7c0,5.9,4.3,10.5,9.5,10.5c5.3,0,9.5-4.7,9.5-10.5C125.9,48.2,121.6,43.4,116.3,43.4z"/>
	<path class="st0" d="M45.6,88.7L0,43.1l2.5-1.3l43.2-23l45.6,24.3L45.6,88.7L45.6,88.7z M45.6,75.7l34.8-32.6L45.6,23.8L10.8,43.1
		L45.6,75.7z"/>
	<path class="st0" d="M48.9,77c0,0-6.3-37.4,14.2-57.9l8.9,4.7L67.3,0L39.7,6.8l6.4,3.4c-7.6,9.3-11.4,22.4-12,36.1
		c-0.3,5.9,0.7,15.2,2,22.9L43.9,82L48.9,77z"/>
</g>
</svg>
