<?xml version="1.0" encoding="UTF-8" standalone="no"?>
<svg width="17px" height="13px" viewBox="0 0 17 13" version="1.1" xmlns="http://www.w3.org/2000/svg" xmlns:xlink="http://www.w3.org/1999/xlink" xmlns:sketch="http://www.bohemiancoding.com/sketch/ns">
    <!-- Generator: Sketch 3.1.1 (8761) - http://www.bohemiancoding.com/sketch -->
    <title>move</title>
    <desc>Created with Sketch.</desc>
    <defs></defs>
    <g id="Page-1" stroke="none" stroke-width="1" fill="none" fill-rule="evenodd" sketch:type="MSPage">
        <g id="move" sketch:type="MSLayerGroup" transform="translate(0.000000, -4.000000)">
            <path d="M4,17 L3,17 L3,12 L5,12 L5,15 L15,15 L15,17 L4,17 Z M15,12 L15,17 L17,17 L17,12 L15,12 Z" id="Rectangle-2" fill="#999999" sketch:type="MSShapeGroup"></path>
            <path d="M13.7728,6.46661657 C13.9244,6.61021657 14,6.78821657 14,7.00061657 C14,7.20501657 13.9244,7.38301657 13.7728,7.53461657 L10.5756,10.7518166 C10.3536,10.9738166 10.1624,11.0506166 10.0016,10.9830166 C9.8408,10.9154166 9.7612,10.7278166 9.7612,10.4198166 L9.7612,8.27061657 C8.6244,8.27981657 7.6228,8.40221657 6.7592,8.63861657 C5.896,8.87501657 5.1664,9.19501657 4.5716,9.59901657 C3.9764,10.0030166 3.5104,10.4782166 3.1716,11.0258166 C2.8328,11.5718166 2.6204,12.1602166 2.534,12.7898166 C2.5168,12.9334166 2.4356,13.0050166 2.292,13.0050166 L2.2788,13.0050166 C2.1368,13.0050166 2.0556,12.9330166 2.0384,12.7898166 C2.012,12.5678166 2,12.3470166 2,12.1254166 C2,11.2182166 2.154,10.3638166 2.4648,9.56301657 C2.7756,8.76181657 3.2484,8.06221657 3.8848,7.46301657 C4.5212,6.86381657 5.326,6.38861657 6.3012,6.03781657 C7.2748,5.68581657 8.4292,5.50501657 9.7612,5.49701657 L9.7612,3.58821657 C9.7612,3.27621657 9.8396,3.08741657 9.9964,3.02221657 C10.152,2.95701657 10.3456,3.03541657 10.5756,3.25621657 L13.7728,6.46661657 L13.7728,6.46661657 Z" id="Shape" fill="#666666" sketch:type="MSShapeGroup" transform="translate(8.000000, 8.002508) rotate(-308.000000) translate(-8.000000, -8.002508) "></path>
        </g>
    </g>
</svg>