<?xml version="1.0" encoding="UTF-8" standalone="no"?>
<svg width="16px" height="16px" viewBox="0 0 16 16" version="1.1" xmlns="http://www.w3.org/2000/svg" xmlns:xlink="http://www.w3.org/1999/xlink" xmlns:sketch="http://www.bohemiancoding.com/sketch/ns">
    <!-- Generator: Sketch 3.2.2 (9983) - http://www.bohemiancoding.com/sketch -->
    <title>icn-layer-unlocked</title>
    <desc>Created with Sketch.</desc>
    <defs></defs>
    <g id="Page-1" stroke="none" stroke-width="1" fill="none" fill-rule="evenodd" sketch:type="MSPage">
        <g id="icn-layer-unlocked" sketch:type="MSArtboardGroup" fill="#CCCCCC">
            <path d="M13.1459234,2.3550625 C13.7152383,2.5939375 14.2120344,2.9205625 14.635478,3.3349375 C15.0572545,3.7493125 15.3906747,4.2351875 15.6357385,4.79175 C15.8791352,5.3466875 16,5.934125 16,6.55325 L16,7.81425 C16,7.9970625 15.9374837,8.150625 15.809117,8.274125 C15.6807502,8.39925 15.5248763,8.4601875 15.3373274,8.4601875 L14.6571503,8.4601875 C14.4696015,8.4601875 14.3137275,8.397625 14.188695,8.270875 C14.0636624,8.144125 14.0011461,7.991375 14.0011461,7.81425 L14.0011461,6.5540625 C14.0011461,6.1900625 13.9319614,5.8488125 13.7894243,5.5335625 C13.6468872,5.2183125 13.4560042,4.9445 13.2201094,4.7129375 C12.9800469,4.481375 12.6991404,4.2969375 12.3765564,4.16125 C12.0531388,4.0255625 11.7030477,3.958125 11.3296171,3.958125 C10.9561865,3.958125 10.6094295,4.0255625 10.2910133,4.16125 C9.97343058,4.2969375 9.69169054,4.481375 9.44912738,4.7129375 C9.20406356,4.9445 9.01318052,5.22075 8.87481115,5.5368125 C8.73394113,5.8553125 8.66475645,6.1949375 8.66475645,6.5540625 L8.66475645,7.848375 L9.67835374,7.848375 C9.94592342,7.848375 10.1768169,7.9434375 10.3727012,8.134375 C10.5669185,8.3253125 10.6644439,8.5593125 10.6644439,8.83475 L10.6644439,14.02825 C10.6644439,14.2890625 10.5669185,14.51575 10.3727012,14.7083125 C10.1751498,14.9016875 9.94425632,15 9.67752019,15 L0.996926283,15 C0.729356603,15 0.496796041,14.9016875 0.299244595,14.709125 C0.100859599,14.51575 0,14.2890625 0,14.0290625 L0,8.83475 C0,8.5641875 0.100859599,8.3318125 0.298411045,8.13925 C0.49596249,7.94425 0.729356603,7.848375 0.996092732,7.848375 L6.65589997,7.848375 L6.65589997,6.5540625 C6.65589997,5.9300625 6.77759833,5.341 7.0201615,4.7876875 C7.26522532,4.234375 7.60031258,3.750125 8.02542329,3.33575 C8.45053399,2.921375 8.94733003,2.59475 9.51497786,2.355875 C10.0834592,2.118625 10.6877833,2 11.32795,2 C11.9689502,2 12.5749414,2.118625 13.1459234,2.3550625 Z M5.90653816,11.273875 C6.07158114,11.1755625 6.20494921,11.039875 6.31081011,10.870875 C6.41667101,10.7035 6.46918468,10.5223125 6.46918468,10.32975 C6.46918468,10.0250625 6.35832248,9.761 6.13576452,9.541625 C5.91654077,9.319 5.64980464,9.2093125 5.33722324,9.2093125 C5.02464183,9.2093125 4.75707215,9.319 4.53701485,9.5408125 C4.31695754,9.761 4.20526179,10.02425 4.20526179,10.3289375 C4.20526179,10.5223125 4.25694191,10.7026875 4.35780151,10.8700625 C4.46032821,11.0390625 4.59369628,11.16825 4.75707215,11.256 L4.20526179,13.6390625 L6.46918468,13.6390625 L5.90653816,11.273875 L5.90653816,11.273875 Z" id="unlock" sketch:type="MSShapeGroup"></path>
        </g>
    </g>
</svg>