<?xml version="1.0" encoding="UTF-8" standalone="no"?>
<svg width="76px" height="28px" viewBox="0 0 76 28" version="1.1" xmlns="http://www.w3.org/2000/svg" xmlns:xlink="http://www.w3.org/1999/xlink" xmlns:sketch="http://www.bohemiancoding.com/sketch/ns">
    <!-- Generator: Sketch 3.2.2 (9983) - http://www.bohemiancoding.com/sketch -->
    <title>gliffy-logo</title>
    <desc>Created with Sketch.</desc>
    <defs></defs>
    <g id="Page-1" stroke="none" stroke-width="1" fill="none" fill-rule="evenodd" sketch:type="MSPage">
        <g id="gliffy-logo" sketch:type="MSLayerGroup" fill="#FFFFFF">
            <path d="M50.8662439,22.3 L47.9247967,22.3 L47.9247967,10.8707692 L50.8662439,10.8707692 L50.8662439,22.3 L50.8662439,22.3 Z" id="Shape" sketch:type="MSShapeGroup"></path>
            <path d="M63.27,10.9153846 L63.27,13.5110769 L55.5680488,13.5110769 L55.5680488,22.3224615 L52.6269106,22.3224615 L52.6269106,11.0486154 C52.6269106,8.00707692 54.4546179,5.744 57.7522764,6.12061538 L57.7522764,8.87292308 C56.348748,8.76184615 55.5902927,9.33876923 55.5680488,10.9150769 L63.27,10.9150769 L63.27,10.9153846 Z" id="Shape" sketch:type="MSShapeGroup"></path>
            <path d="M64.5932033,10.9153846 L64.5932033,13.5110769 L62.521122,13.5110769 L62.521122,22.3224615 L59.5796748,22.3224615 L59.5796748,11.0486154 C59.5796748,8.00707692 61.4073821,5.744 64.7050407,6.12061538 L64.7050407,8.87292308 C63.3008943,8.76184615 62.5436748,9.33876923 62.5214309,10.9150769 L64.5932033,10.9150769 L64.5932033,10.9153846 Z" id="Shape" sketch:type="MSShapeGroup"></path>
            <path d="M75.8412033,22.7655385 C75.8412033,25.8507692 73.8136098,27.8923077 70.7380813,27.8923077 C68.2201951,27.8923077 66.1481138,26.2498462 65.7474146,23.8972308 L68.8006992,23.8972308 C68.9780325,24.7415385 69.7364878,25.1627692 70.7380813,25.1627692 C72.3424228,25.1627692 72.900065,24.0304615 72.900065,22.9649231 L72.900065,21.6338462 C72.2098862,22.2107692 71.3179675,22.5652308 70.2703415,22.5652308 C67.4626667,22.5652308 65.5913984,20.5464615 65.5913984,17.5501538 L65.5913984,10.8707692 L68.5325366,10.8707692 L68.5325366,17.5504615 C68.5325366,18.1947692 68.7546667,19.7913846 70.6716585,19.7913846 C71.9865203,19.7913846 72.900065,18.8375385 72.900065,17.5504615 L72.900065,10.8707692 L75.8412033,10.8707692 L75.8412033,22.7655385 L75.8412033,22.7655385 Z" id="Shape" sketch:type="MSShapeGroup"></path>
            <rect id="Rectangle-path" sketch:type="MSShapeGroup" x="43.2955935" y="6.04861538" width="2.96338211" height="16.348"></rect>
            <ellipse id="Oval" sketch:type="MSShapeGroup" cx="49.3969106" cy="8.14676923" rx="1.78569106" ry="1.77846154"></ellipse>
            <path d="M41.8284228,21.7504615 C41.8284228,25.5455385 39.5555285,27.9212308 35.8784878,27.9212308 C33.1375447,27.9212308 30.752813,26.3449231 30.307935,23.9261538 L33.5388618,23.9261538 C33.917626,24.836 35.0764715,25.1910769 35.8784878,25.1910769 C37.950878,25.1910769 38.8866667,23.8372308 38.8866667,21.7950769 L38.8866667,21.2396923 C37.9950569,22.084 36.8365203,22.572 35.4991057,22.572 C32.5134797,22.572 30.0394634,19.9975385 30.0394634,16.6236923 C30.0394634,13.2283077 32.5134797,10.6538462 35.4991057,10.6538462 C36.903252,10.6538462 38.1062764,11.1867692 39.0198211,12.1184615 L39.0198211,10.8978462 L41.8281138,10.8978462 L41.8281138,21.7504615 L41.8284228,21.7504615 Z M35.9452195,13.3618462 C34.3186341,13.3618462 33.0040813,14.7818462 33.0040813,16.6467692 C33.0040813,18.4664615 34.3186341,19.8649231 35.9452195,19.8649231 C37.5714959,19.8649231 38.8866667,18.4221538 38.8866667,16.6467692 C38.8866667,14.8264615 37.571187,13.3618462 35.9452195,13.3618462 L35.9452195,13.3618462 Z" id="Shape" sketch:type="MSShapeGroup"></path>
            <path d="M14.0949106,27.2963077 L0,13.2584615 L0.763089431,12.8532308 L14.0949106,5.77323077 L28.190439,13.2584615 L14.0949106,27.2963077 L14.0949106,27.2963077 Z M14.0955285,23.9147692 L26.078813,13.2584615 L14.0955285,6.39353846 L2.1122439,13.2584615 L14.0955285,23.9147692 L14.0955285,23.9147692 Z" id="Shape" sketch:type="MSShapeGroup"></path>
            <path d="M19.5767967,13.7756923 L21.0989593,14.864 L21.041187,10.0990769 L15.585252,10.92 L16.6850894,11.7067692 C14.9333821,13.3858462 13.7492033,15.8972308 13.1600488,18.5793846 C12.7099187,20.6316923 12.6465854,24.8738462 12.9023902,25.7381538 L13.8885366,27.124 L14.3102439,26.7621538 C14.2629756,25.8673846 14.3664715,24.8606154 14.3664715,24.8606154 L14.4044715,24.8353846 C14.0263252,20.34 16.3174472,16.3153846 19.5767967,13.7756923 L19.5767967,13.7756923 Z" id="Shape" opacity="0.6" sketch:type="MSShapeGroup"></path>
            <path d="M19.4822602,5.88338462 L22.2324715,7.324 L20.7943415,0 L12.2678211,2.10523077 L14.255561,3.14553846 C11.9180976,5.99876923 10.7261951,10.0464615 10.5377398,14.264 C10.3940813,17.4923077 11.4908293,24.0289231 12.1451707,25.3187692 L14.1202439,27.2996923 L14.6945691,26.6778462 C14.3661626,25.3083077 14.2484553,23.744 14.2484553,23.744 C14.2484553,23.744 13.1563415,12.1836923 19.4822602,5.88338462 L19.4822602,5.88338462 Z" id="Shape" sketch:type="MSShapeGroup"></path>
            <path d="M1.42206504,12.8756923 C1.42206504,12.8756923 12.6947805,25.5061538 13.3991707,25.3658462 C14.103561,25.2255385 26.6444878,13.1563077 26.6444878,13.1563077 L14.385626,6.42 L1.42206504,12.8756923 Z" id="Shape" opacity="0.3" sketch:type="MSShapeGroup"></path>
        </g>
    </g>
</svg>